<mxfile host="app.diagrams.net" modified="2024-05-10T07:49:23.418Z" agent="Mozilla/5.0 (Windows NT 10.0; Win64; x64) AppleWebKit/537.36 (KHTML, like Gecko) Chrome/124.0.0.0 Safari/537.36" etag="Hc4L_cf1herFIOz252Zf" version="24.3.1" type="device">
  <diagram name="Page-1" id="UxE4LC1nv8S3VddRC7AK">
    <mxGraphModel dx="1687" dy="889" grid="1" gridSize="10" guides="1" tooltips="1" connect="1" arrows="1" fold="1" page="1" pageScale="1" pageWidth="827" pageHeight="1169" math="0" shadow="0">
      <root>
        <mxCell id="0" />
        <mxCell id="1" parent="0" />
        <mxCell id="ANnKX_tjaoHVw4pFTCcs-4" style="edgeStyle=orthogonalEdgeStyle;rounded=0;orthogonalLoop=1;jettySize=auto;html=1;" parent="1" source="ANnKX_tjaoHVw4pFTCcs-1" edge="1">
          <mxGeometry relative="1" as="geometry">
            <mxPoint x="280" y="50" as="targetPoint" />
          </mxGeometry>
        </mxCell>
        <mxCell id="ANnKX_tjaoHVw4pFTCcs-1" value="Chargement des recettes (importation des datas)" style="rounded=1;whiteSpace=wrap;html=1;" parent="1" vertex="1">
          <mxGeometry x="80" y="20" width="160" height="60" as="geometry" />
        </mxCell>
        <mxCell id="ANnKX_tjaoHVw4pFTCcs-3" value="Chargement des éléments du DOM (dropdow etc)" style="rounded=1;whiteSpace=wrap;html=1;" parent="1" vertex="1">
          <mxGeometry x="290" y="20" width="160" height="60" as="geometry" />
        </mxCell>
        <mxCell id="ANnKX_tjaoHVw4pFTCcs-5" value="Si l&#39;utilisateur sélectionne un filtre" style="rounded=1;whiteSpace=wrap;html=1;" parent="1" vertex="1">
          <mxGeometry x="60" y="140" width="230" height="60" as="geometry" />
        </mxCell>
        <mxCell id="ANnKX_tjaoHVw4pFTCcs-23" style="edgeStyle=orthogonalEdgeStyle;rounded=0;orthogonalLoop=1;jettySize=auto;html=1;exitX=0.5;exitY=1;exitDx=0;exitDy=0;entryX=0.168;entryY=-0.033;entryDx=0;entryDy=0;entryPerimeter=0;" parent="1" source="ANnKX_tjaoHVw4pFTCcs-8" target="ANnKX_tjaoHVw4pFTCcs-10" edge="1">
          <mxGeometry relative="1" as="geometry">
            <mxPoint x="358" y="485" as="targetPoint" />
          </mxGeometry>
        </mxCell>
        <mxCell id="ANnKX_tjaoHVw4pFTCcs-8" value="Ajouter le filtre à la liste de filtres actifs" style="rounded=1;whiteSpace=wrap;html=1;" parent="1" vertex="1">
          <mxGeometry x="60" y="240" width="230" height="60" as="geometry" />
        </mxCell>
        <mxCell id="ANnKX_tjaoHVw4pFTCcs-9" style="edgeStyle=orthogonalEdgeStyle;rounded=0;orthogonalLoop=1;jettySize=auto;html=1;exitX=0.5;exitY=1;exitDx=0;exitDy=0;entryX=0.5;entryY=-0.167;entryDx=0;entryDy=0;entryPerimeter=0;" parent="1" source="ANnKX_tjaoHVw4pFTCcs-5" target="ANnKX_tjaoHVw4pFTCcs-8" edge="1">
          <mxGeometry relative="1" as="geometry" />
        </mxCell>
        <mxCell id="ANnKX_tjaoHVw4pFTCcs-14" style="edgeStyle=orthogonalEdgeStyle;rounded=0;orthogonalLoop=1;jettySize=auto;html=1;exitX=0.5;exitY=1;exitDx=0;exitDy=0;" parent="1" source="ANnKX_tjaoHVw4pFTCcs-10" edge="1">
          <mxGeometry relative="1" as="geometry">
            <mxPoint x="418" y="570" as="targetPoint" />
          </mxGeometry>
        </mxCell>
        <mxCell id="ANnKX_tjaoHVw4pFTCcs-10" value="Fonction recherche des recettes" style="rounded=1;whiteSpace=wrap;html=1;" parent="1" vertex="1">
          <mxGeometry x="320" y="490" width="196" height="60" as="geometry" />
        </mxCell>
        <mxCell id="ANnKX_tjaoHVw4pFTCcs-13" style="edgeStyle=orthogonalEdgeStyle;rounded=0;orthogonalLoop=1;jettySize=auto;html=1;exitX=0.5;exitY=1;exitDx=0;exitDy=0;entryX=0.5;entryY=0;entryDx=0;entryDy=0;" parent="1" source="ANnKX_tjaoHVw4pFTCcs-11" target="ANnKX_tjaoHVw4pFTCcs-12" edge="1">
          <mxGeometry relative="1" as="geometry" />
        </mxCell>
        <mxCell id="ANnKX_tjaoHVw4pFTCcs-11" value="Affichage des recettes" style="rounded=1;whiteSpace=wrap;html=1;" parent="1" vertex="1">
          <mxGeometry x="320" y="580" width="196" height="60" as="geometry" />
        </mxCell>
        <mxCell id="ANnKX_tjaoHVw4pFTCcs-12" value="Affichage des filtres actifs" style="rounded=1;whiteSpace=wrap;html=1;" parent="1" vertex="1">
          <mxGeometry x="320" y="680" width="196" height="60" as="geometry" />
        </mxCell>
        <mxCell id="ANnKX_tjaoHVw4pFTCcs-22" style="edgeStyle=orthogonalEdgeStyle;rounded=0;orthogonalLoop=1;jettySize=auto;html=1;exitX=0.5;exitY=1;exitDx=0;exitDy=0;entryX=0.51;entryY=0;entryDx=0;entryDy=0;entryPerimeter=0;" parent="1" source="ANnKX_tjaoHVw4pFTCcs-15" target="ANnKX_tjaoHVw4pFTCcs-10" edge="1">
          <mxGeometry relative="1" as="geometry">
            <mxPoint x="400" y="480" as="targetPoint" />
          </mxGeometry>
        </mxCell>
        <mxCell id="ANnKX_tjaoHVw4pFTCcs-15" value="Supprimer le filtre de la liste de filtres actifs" style="rounded=1;whiteSpace=wrap;html=1;" parent="1" vertex="1">
          <mxGeometry x="330" y="240" width="230" height="60" as="geometry" />
        </mxCell>
        <mxCell id="ANnKX_tjaoHVw4pFTCcs-17" style="edgeStyle=orthogonalEdgeStyle;rounded=0;orthogonalLoop=1;jettySize=auto;html=1;exitX=0.5;exitY=1;exitDx=0;exitDy=0;" parent="1" source="ANnKX_tjaoHVw4pFTCcs-16" edge="1">
          <mxGeometry relative="1" as="geometry">
            <mxPoint x="445" y="230" as="targetPoint" />
          </mxGeometry>
        </mxCell>
        <mxCell id="ANnKX_tjaoHVw4pFTCcs-16" value="Si l&#39;utilisateur supprime un filtre" style="rounded=1;whiteSpace=wrap;html=1;" parent="1" vertex="1">
          <mxGeometry x="330" y="140" width="230" height="60" as="geometry" />
        </mxCell>
        <mxCell id="ANnKX_tjaoHVw4pFTCcs-20" style="edgeStyle=orthogonalEdgeStyle;rounded=0;orthogonalLoop=1;jettySize=auto;html=1;exitX=0.5;exitY=1;exitDx=0;exitDy=0;" parent="1" source="ANnKX_tjaoHVw4pFTCcs-18" edge="1">
          <mxGeometry relative="1" as="geometry">
            <mxPoint x="712" y="230" as="targetPoint" />
          </mxGeometry>
        </mxCell>
        <mxCell id="ANnKX_tjaoHVw4pFTCcs-18" value="Si l&#39;utilisateur effectue une recherche par mot-clé" style="rounded=1;whiteSpace=wrap;html=1;" parent="1" vertex="1">
          <mxGeometry x="597" y="140" width="230" height="60" as="geometry" />
        </mxCell>
        <mxCell id="ANnKX_tjaoHVw4pFTCcs-19" value="Ajouter le mot-clé à la liste de filtres actifs" style="rounded=1;whiteSpace=wrap;html=1;" parent="1" vertex="1">
          <mxGeometry x="600" y="240" width="230" height="60" as="geometry" />
        </mxCell>
        <mxCell id="ANnKX_tjaoHVw4pFTCcs-21" style="edgeStyle=orthogonalEdgeStyle;rounded=0;orthogonalLoop=1;jettySize=auto;html=1;exitX=0.5;exitY=1;exitDx=0;exitDy=0;entryX=0.816;entryY=0;entryDx=0;entryDy=0;entryPerimeter=0;" parent="1" source="ANnKX_tjaoHVw4pFTCcs-19" target="ANnKX_tjaoHVw4pFTCcs-10" edge="1">
          <mxGeometry relative="1" as="geometry" />
        </mxCell>
        <mxCell id="Z79_6dAWDxH5TRc9pTsC-5" style="edgeStyle=orthogonalEdgeStyle;rounded=0;orthogonalLoop=1;jettySize=auto;html=1;exitX=0.5;exitY=1;exitDx=0;exitDy=0;entryX=0.5;entryY=0;entryDx=0;entryDy=0;" parent="1" source="Z79_6dAWDxH5TRc9pTsC-2" target="Z79_6dAWDxH5TRc9pTsC-4" edge="1">
          <mxGeometry relative="1" as="geometry" />
        </mxCell>
        <mxCell id="Z79_6dAWDxH5TRc9pTsC-2" value="Pour chaque recette, vérifier si elle correspond à chaque filtre" style="rounded=1;whiteSpace=wrap;html=1;" parent="1" vertex="1">
          <mxGeometry x="660" y="470" width="360" height="70" as="geometry" />
        </mxCell>
        <mxCell id="Z79_6dAWDxH5TRc9pTsC-3" value="" style="endArrow=none;dashed=1;html=1;dashPattern=1 3;strokeWidth=2;rounded=0;entryX=-0.017;entryY=0.6;entryDx=0;entryDy=0;entryPerimeter=0;" parent="1" target="Z79_6dAWDxH5TRc9pTsC-2" edge="1">
          <mxGeometry width="50" height="50" relative="1" as="geometry">
            <mxPoint x="520" y="512" as="sourcePoint" />
            <mxPoint x="670" y="500" as="targetPoint" />
          </mxGeometry>
        </mxCell>
        <mxCell id="Z79_6dAWDxH5TRc9pTsC-8" value="" style="edgeStyle=orthogonalEdgeStyle;rounded=0;orthogonalLoop=1;jettySize=auto;html=1;" parent="1" source="Z79_6dAWDxH5TRc9pTsC-4" target="Z79_6dAWDxH5TRc9pTsC-7" edge="1">
          <mxGeometry relative="1" as="geometry" />
        </mxCell>
        <mxCell id="Z79_6dAWDxH5TRc9pTsC-4" value="Convertir chaque texte en minuscule pour une comparaison insensible à la casse" style="rounded=1;whiteSpace=wrap;html=1;" parent="1" vertex="1">
          <mxGeometry x="660" y="575" width="360" height="70" as="geometry" />
        </mxCell>
        <mxCell id="Z79_6dAWDxH5TRc9pTsC-10" style="edgeStyle=orthogonalEdgeStyle;rounded=0;orthogonalLoop=1;jettySize=auto;html=1;exitX=0.5;exitY=1;exitDx=0;exitDy=0;entryX=0.5;entryY=0;entryDx=0;entryDy=0;" parent="1" source="Z79_6dAWDxH5TRc9pTsC-7" target="Z79_6dAWDxH5TRc9pTsC-9" edge="1">
          <mxGeometry relative="1" as="geometry" />
        </mxCell>
        <mxCell id="Z79_6dAWDxH5TRc9pTsC-7" value="Si le nom de la recette ou la description ou l&#39;appareil de cuisson ou les ustensiles ou les ingrédients contiennent le filtre" style="rounded=1;whiteSpace=wrap;html=1;" parent="1" vertex="1">
          <mxGeometry x="660" y="690" width="360" height="70" as="geometry" />
        </mxCell>
        <mxCell id="Z79_6dAWDxH5TRc9pTsC-9" value="Retourner le tableau des recettes filtrées" style="rounded=1;whiteSpace=wrap;html=1;" parent="1" vertex="1">
          <mxGeometry x="660" y="810" width="360" height="70" as="geometry" />
        </mxCell>
      </root>
    </mxGraphModel>
  </diagram>
</mxfile>
